<svg version="1.2" xmlns="http://www.w3.org/2000/svg" viewBox="0 0 800 800" width="800" height="800">
	<title>globe-simple-thin</title>
	<style>
		.s0 { fill: #161819 } 
		.s1 { fill: #00aeff } 
	</style>
	<path id="Shape 1" fill-rule="evenodd" class="s0" d="m400 800c-221.2 0-400-178.8-400-400 0-221.2 178.8-400 400-400 221.2 0 400 178.8 400 400 0 221.2-178.8 400-400 400z"/>
	<path class="s1" d="m283.3 134.5c-107.3 47.1-175.7 154.2-173.2 271.4 2.5 117.2 75.3 221.3 184.5 263.9 109.2 42.5 233.3 15.1 314.4-69.5 81.1-84.6 103.2-209.7 56.1-317-15.3-34.8-37.4-66.3-64.8-92.6-27.5-26.3-59.9-46.9-95.3-60.7-35.5-13.9-73.3-20.6-111.3-19.8-38 0.8-75.6 9-110.4 24.3zm355.7 147.6l-127.3 55.9c-42.4-89.8-113.4-157.9-198.1-190.4 30.4-10.4 62.4-15.2 94.5-14.1 32.1 1 63.8 7.8 93.5 20.1 29.7 12.3 56.9 29.8 80.4 51.7 23.4 22 42.7 48 57 76.8zm-136.6 351.2c-81.4-28.7-152.5-95.3-193.3-181l190.7-83.8c35.5 88.1 36.4 185.5 2.6 264.8zm-202.6-202.3c-35.5-88-36.4-185.4-2.6-264.7 81.4 28.7 152.5 95.3 193.3 181zm-27.4-265.4c-33.4 84.4-31.3 182.8 6.1 274.8l-127.2 55.8c-11.6-29.9-17.7-61.7-18-93.9-0.3-32.1 5.2-64 16.3-94.2 11-30.1 27.4-58.1 48.4-82.4 21-24.4 46.2-44.7 74.4-60.1zm-111.8 351.9l127.2-55.9c42.4 89.7 113.5 157.9 198.2 190.4-30.4 10.4-62.5 15.1-94.6 14.1-32.1-1-63.7-7.8-93.4-20.1-29.7-12.3-57-29.8-80.4-51.8-23.5-21.9-42.8-47.9-57-76.7zm366.5 116.4c33.4-84.3 31.3-182.8-6.1-274.7l127.2-55.9c11.6 30 17.7 61.8 18 93.9 0.3 32.1-5.2 64.1-16.3 94.2-11 30.2-27.4 58.1-48.4 82.5-21 24.3-46.2 44.7-74.4 60z"/>
</svg>